<?xml version="1.0" standalone="no"?>
<!DOCTYPE svg PUBLIC "-//W3C//DTD SVG 20010904//EN"
 "http://www.w3.org/TR/2001/REC-SVG-20010904/DTD/svg10.dtd">
<svg version="1.0" xmlns="http://www.w3.org/2000/svg"
 width="1315.000000pt" height="1315.000000pt" viewBox="0 0 1315.000000 1315.000000"
 preserveAspectRatio="xMidYMid meet">
<metadata>
Created by potrace 1.11, written by Peter Selinger 2001-2013
</metadata>
<g transform="translate(0.000000,1315.000000) scale(0.100000,-0.100000)"
fill="#000000" stroke="none">
<path d="M5605 11933 c-179 -19 -365 -47 -479 -73 -133 -29 -326 -96 -326
-112 0 -11 -2 -12 185 27 92 19 225 39 294 45 230 20 577 11 741 -20 546 -102
984 -316 1386 -679 481 -432 790 -1041 885 -1741 16 -121 18 -445 3 -581 -33
-307 -126 -632 -257 -899 -339 -693 -935 -1219 -1637 -1446 -109 -35 -320 -86
-431 -103 -204 -32 -592 -32 -799 0 -893 138 -1661 688 -2059 1474 -175 344
-264 667 -292 1055 -11 161 -8 318 11 521 10 106 64 390 86 452 17 48 17 48 0
41 -7 -3 -22 -31 -31 -62 -10 -31 -29 -91 -42 -132 -38 -119 -90 -363 -109
-515 -25 -196 -26 -655 -1 -844 74 -563 269 -1018 642 -1496 464 -595 1005
-957 1675 -1121 375 -92 830 -111 1270 -54 630 81 1201 365 1699 845 69 67
137 129 151 138 44 31 99 21 185 -32 287 -177 1426 -860 1517 -910 157 -85
286 -101 442 -56 145 42 283 141 356 255 53 83 72 153 77 287 5 112 3 130 -20
206 -43 137 -131 248 -267 335 -30 19 -143 88 -250 152 -107 65 -271 164 -365
220 -93 57 -240 145 -325 195 -85 51 -192 115 -238 144 -46 28 -85 51 -87 51
-2 0 -53 30 -112 66 -59 36 -124 74 -144 85 -20 10 -51 32 -68 49 -26 27 -31
39 -31 82 0 29 11 80 25 119 43 120 95 350 115 510 25 204 21 582 -9 799 -33
246 -103 523 -188 745 -83 219 -256 532 -391 709 -448 589 -1107 1026 -1802
1195 -231 56 -376 72 -675 76 -148 1 -288 1 -310 -2z"/>
<path d="M5235 11435 c-394 -76 -705 -198 -1000 -394 -499 -331 -877 -840
-1039 -1401 -80 -277 -101 -416 -100 -650 1 -292 44 -524 156 -835 150 -422
388 -768 643 -940 46 -31 71 -32 47 -2 -38 47 -198 393 -250 542 -101 286
-152 584 -152 878 0 532 155 1003 468 1427 31 41 119 138 196 215 333 332 701
553 1106 663 170 46 302 64 520 69 233 6 433 -16 656 -72 276 -69 451 -134
777 -289 43 -21 81 -36 83 -33 3 3 -17 36 -43 73 -234 336 -697 596 -1281 721
-165 35 -171 35 -442 39 -202 2 -294 -1 -345 -11z"/>
<path d="M5680 10378 c0 -5 -4 -7 -9 -3 -5 3 -12 1 -16 -5 -7 -11 -60 -26
-120 -35 -22 -3 -47 -9 -55 -12 -20 -8 -28 -10 -79 -18 -24 -3 -69 -16 -100
-28 -31 -12 -59 -20 -63 -19 -5 1 -8 -2 -8 -7 0 -5 -21 -17 -47 -27 -27 -10
-57 -25 -67 -34 -38 -31 -96 -95 -96 -107 0 -7 -4 -13 -9 -13 -11 0 -93 -158
-119 -230 -27 -74 -36 -123 -38 -200 -1 -52 -7 -133 -15 -188 -1 -4 0 -9 1
-12 1 -3 3 -18 5 -35 1 -16 8 -56 14 -88 7 -32 11 -59 9 -60 -33 -17 -47 -30
-65 -62 -12 -22 -20 -42 -17 -46 2 -4 0 -10 -6 -14 -12 -7 -11 -56 1 -100 4
-16 10 -41 11 -55 5 -36 41 -130 50 -130 4 0 15 -14 23 -31 34 -65 126 -143
163 -138 21 3 32 -3 32 -17 0 -21 54 -160 96 -248 29 -60 8 -218 -42 -316 -26
-52 -79 -109 -142 -152 -60 -42 -301 -156 -447 -212 -66 -25 -149 -60 -185
-77 -75 -36 -210 -120 -210 -132 0 -12 84 -121 159 -206 91 -103 217 -211 341
-292 l105 -69 850 0 851 0 74 46 c111 69 183 127 299 239 84 81 241 269 241
288 0 2 -30 24 -67 48 -69 45 -154 86 -318 154 -338 140 -448 196 -521 269
-64 65 -102 142 -85 175 5 9 9 19 10 24 0 4 8 24 17 45 9 20 19 45 21 55 1 10
9 28 15 40 7 12 13 25 14 30 1 4 3 9 4 12 1 3 3 8 5 13 3 12 34 75 58 117 32
58 59 133 52 145 -3 5 -1 10 4 10 6 0 11 9 11 19 0 11 5 23 10 26 6 4 8 10 6
13 -11 18 16 107 43 140 39 51 81 137 84 173 1 16 4 29 7 29 3 0 4 21 3 47 0
27 -2 48 -3 48 -1 0 -3 10 -6 23 -7 40 -34 83 -59 92 -34 13 -35 19 -13 85 10
33 20 76 23 95 2 19 4 35 5 35 1 0 2 29 2 65 1 69 -11 180 -22 210 -1 3 -2 9
-1 13 1 4 -5 20 -14 36 -8 16 -11 31 -8 35 4 3 1 6 -6 6 -7 0 -9 5 -6 10 3 6
1 10 -4 10 -6 0 -11 6 -11 13 0 8 -9 24 -20 37 -11 13 -20 29 -20 35 0 7 -16
30 -35 51 -19 21 -36 42 -36 46 -8 50 -64 138 -88 138 -6 0 -11 4 -11 8 0 4
-24 17 -52 27 -29 10 -53 17 -53 14 0 -2 -13 5 -30 17 -37 25 -107 59 -117 56
-5 -1 -8 3 -8 8 0 6 -6 10 -14 10 -7 0 -25 9 -38 20 -27 20 -98 34 -98 18z"/>
<path d="M7679 10303 c-54 -16 -68 -28 -145 -123 -110 -137 -183 -237 -299
-412 -63 -95 -122 -185 -133 -200 -24 -37 -38 -25 -68 57 -36 98 -58 111 -129
74 -84 -43 -90 -70 -46 -205 39 -117 65 -176 84 -193 21 -16 129 -16 156 0 10
7 47 57 82 111 152 235 402 574 587 797 54 64 67 91 50 102 -18 12 -86 8 -139
-8z"/>
<path d="M7100 10240 c-19 -4 -49 -10 -66 -14 -58 -11 -180 -73 -222 -113 -7
-7 -21 -18 -31 -25 -9 -7 -38 -39 -64 -71 -188 -231 -174 -579 30 -792 119
-124 241 -181 407 -191 151 -8 272 26 391 111 104 74 165 154 216 281 70 175
36 432 -75 565 l-23 27 -22 -28 c-26 -36 -26 -45 -2 -79 47 -65 64 -131 67
-251 3 -136 -14 -203 -74 -296 -47 -71 -63 -89 -122 -135 -202 -160 -497 -143
-681 40 -325 324 -112 870 345 887 83 3 172 -12 225 -39 30 -15 30 -15 51 20
11 19 20 36 20 39 0 8 -81 40 -135 53 -59 15 -185 21 -235 11z"/>
<path d="M2343 5205 c-193 -52 -301 -253 -232 -437 30 -82 129 -184 204 -210
71 -25 186 -19 250 11 108 52 186 171 193 293 6 98 -18 166 -84 237 -93 101
-208 138 -331 106z"/>
<path d="M12289 4962 c-80 -29 -144 -99 -174 -187 -13 -40 -17 -91 -17 -262
l-1 -213 -61 -1 c-157 -3 -225 -29 -280 -108 -77 -111 -59 -292 36 -365 52
-39 86 -49 188 -52 52 -1 100 -3 106 -3 8 -1 11 -206 11 -710 0 -390 3 -725 7
-745 18 -94 77 -175 160 -219 60 -31 202 -31 267 0 72 35 135 117 155 203 4
19 9 357 10 750 1 393 2 717 3 720 0 3 47 5 103 4 167 -2 273 38 320 121 32
56 36 199 8 259 -49 105 -114 135 -310 145 l-124 6 -1 220 -1 220 -32 67 c-55
113 -142 168 -266 168 -34 -1 -82 -9 -107 -18z"/>
<path d="M1019 4346 c-2 -2 -25 -7 -50 -10 -128 -17 -246 -73 -335 -161 l-62
-61 -11 37 c-6 19 -25 55 -42 78 -87 121 -321 127 -427 11 -38 -41 -68 -92
-81 -140 -9 -34 -11 -257 -9 -925 l3 -880 26 -55 c51 -106 132 -160 253 -168
99 -6 169 22 230 89 82 92 81 76 82 729 1 561 4 641 25 698 65 180 193 264
385 255 170 -7 312 -125 345 -283 8 -37 12 -249 13 -655 l1 -600 26 -55 c35
-74 67 -110 131 -145 48 -27 62 -30 143 -30 74 1 98 5 135 24 77 40 130 110
151 196 12 55 17 1290 5 1380 -47 338 -246 562 -581 651 -53 14 -345 30 -356
20z"/>
<path d="M3759 4334 c-142 -18 -297 -76 -411 -153 -76 -51 -185 -159 -253
-250 -90 -120 -189 -320 -209 -426 -2 -5 -8 -35 -14 -65 -6 -30 -14 -73 -17
-95 -7 -45 -8 -279 -1 -310 2 -11 7 -42 10 -70 4 -27 11 -63 16 -80 5 -16 19
-61 31 -100 63 -210 242 -455 420 -576 236 -160 511 -203 864 -134 95 18 254
89 337 150 143 105 156 303 28 418 -85 77 -155 84 -292 31 -209 -80 -307 -100
-411 -80 -165 30 -285 143 -363 343 -18 46 -33 84 -32 86 0 1 -3 27 -7 57 -11
93 -12 119 -3 192 25 210 113 373 247 459 66 43 143 62 246 62 83 -1 103 -5
259 -58 147 -49 177 -57 227 -53 93 7 162 72 202 190 34 104 -1 233 -80 294
-172 131 -516 204 -794 168z"/>
<path d="M8617 4343 c-2 -1 -22 -3 -45 -4 -23 -2 -42 -6 -42 -9 0 -3 -10 -6
-22 -7 -47 -1 -59 -3 -55 -10 3 -5 -7 -8 -22 -9 -51 -2 -158 -63 -225 -128
-64 -62 -65 -62 -71 -37 -19 75 -122 179 -168 167 -9 -2 -15 0 -11 5 5 9 -7
11 -87 11 -144 0 -258 -92 -288 -232 -9 -41 -11 -284 -9 -925 l3 -870 27 -55
c51 -108 130 -160 252 -168 148 -9 261 74 304 222 3 12 7 287 8 611 2 653 3
667 67 773 67 111 171 166 316 165 191 -2 335 -111 372 -283 9 -38 13 -232 14
-645 1 -411 5 -602 13 -630 39 -138 151 -217 299 -211 97 3 164 36 218 105 68
86 67 79 67 810 0 570 -2 668 -16 745 -28 146 -89 273 -177 367 -46 49 -156
131 -199 149 -19 8 -37 17 -40 20 -5 7 -123 48 -156 54 -118 22 -174 26 -174
13 0 -8 -3 -9 -8 -1 -6 8 -137 15 -145 7z"/>
<path d="M10677 4345 c-1 -2 -33 -5 -72 -9 -72 -6 -117 -13 -147 -22 -9 -3
-25 -6 -35 -9 -175 -35 -394 -187 -527 -365 -22 -30 -43 -57 -46 -60 -3 -3
-22 -33 -43 -68 -82 -140 -140 -311 -162 -477 -7 -54 -8 -257 -1 -290 2 -11 7
-45 12 -75 4 -30 8 -57 9 -60 1 -3 5 -21 9 -40 25 -116 112 -295 200 -415 168
-226 383 -359 655 -402 59 -10 291 -10 356 -1 520 75 897 551 896 1133 0 197
-35 357 -113 522 -113 240 -296 435 -504 536 -65 32 -143 62 -192 72 -12 3
-32 7 -44 10 -63 14 -241 28 -251 20z m158 -566 c197 -47 349 -310 349 -604
-1 -156 -76 -360 -172 -467 -91 -100 -235 -141 -395 -111 -138 25 -227 101
-301 257 -79 164 -97 314 -60 510 14 74 66 188 124 268 59 82 156 142 248 154
26 3 48 7 50 9 6 5 110 -5 157 -16z"/>
<path d="M2357 4318 c-94 -20 -181 -98 -214 -191 -17 -48 -18 -111 -19 -917 0
-479 3 -883 8 -905 21 -94 88 -179 165 -212 49 -20 159 -28 209 -14 108 29
185 120 211 248 8 41 7 1679 -1 1737 -13 90 -81 192 -151 228 -57 29 -144 40
-208 26z"/>
<path d="M6522 4182 c-34 -5 -113 -87 -154 -157 -31 -54 -99 -204 -128 -280
l-11 -30 -24 49 c-42 88 -119 149 -202 162 -28 4 -46 15 -67 42 -44 56 -157
162 -171 162 -8 0 -15 5 -17 10 -8 25 -124 28 -213 5 -239 -62 -502 -288 -681
-585 -30 -50 -54 -93 -54 -95 0 -2 -13 -32 -30 -67 -133 -282 -157 -631 -57
-847 59 -130 164 -239 280 -295 89 -43 113 -49 207 -50 58 -1 94 5 158 27 171
58 339 155 463 266 48 43 55 47 51 26 -6 -34 44 -120 98 -167 132 -118 303
-183 376 -145 56 29 76 61 99 164 97 429 218 664 432 839 l42 34 78 -78 c163
-164 276 -186 373 -75 60 68 119 154 131 190 19 57 18 83 -4 138 -33 84 -28
237 13 366 25 81 25 122 -1 168 -50 89 -205 144 -336 120 -57 -11 -101 -40
-132 -86 -22 -35 -23 -35 -38 -14 -68 98 -367 224 -481 203z m-798 -739 c-18
-340 -178 -635 -416 -767 l-46 -26 -7 29 c-29 134 133 511 293 683 61 66 161
150 171 143 5 -2 7 -30 5 -62z"/>
</g>
</svg>
